HIERARCHY
ROOT Hips
{
	OFFSET 0.000000 0.000000 0.000000
	CHANNELS 6 Xposition Yposition Zposition Zrotation Xrotation Yrotation
	JOINT Spine
	{
		OFFSET 0.000000 -0.000000 0.081624
		CHANNELS 6 Xposition Yposition Zposition Zrotation Xrotation Yrotation
		JOINT Spine1
		{
			OFFSET 0.000000 -0.000000 0.223658
			CHANNELS 6 Xposition Yposition Zposition Zrotation Xrotation Yrotation
			JOINT Neck
			{
				OFFSET 0.000000 -0.000000 0.223658
				CHANNELS 6 Xposition Yposition Zposition Zrotation Xrotation Yrotation
				JOINT Head
				{
					OFFSET 0.000000 -0.000000 0.109496
					CHANNELS 6 Xposition Yposition Zposition Zrotation Xrotation Yrotation
					End Site
					{
						OFFSET 0.000000 -0.000000 0.248855
					}
				}
			}
			JOINT LeftShoulder
			{
				OFFSET 0.038712 0.001691 0.204072
				CHANNELS 6 Xposition Yposition Zposition Zrotation Xrotation Yrotation
				JOINT LeftArm
				{
					OFFSET 0.112670 0.000000 0.000000
					CHANNELS 6 Xposition Yposition Zposition Zrotation Xrotation Yrotation
					JOINT LeftForeArm
					{
						OFFSET 0.324399 0.000000 0.000000
						CHANNELS 6 Xposition Yposition Zposition Zrotation Xrotation Yrotation
						JOINT LeftHand
						{
							OFFSET 0.295418 0.000000 0.000000
							CHANNELS 6 Xposition Yposition Zposition Zrotation Xrotation Yrotation
							End Site
							{
								OFFSET 0.149313 0.000000 0.000000
							}
						}
					}
				}
			}
			JOINT RightShoulder
			{
				OFFSET -0.038825 0.001691 0.204072
				CHANNELS 6 Xposition Yposition Zposition Zrotation Xrotation Yrotation
				JOINT RightArm
				{
					OFFSET -0.112670 0.000000 0.000000
					CHANNELS 6 Xposition Yposition Zposition Zrotation Xrotation Yrotation
					JOINT RightForeArm
					{
						OFFSET -0.324399 0.000000 0.000000
						CHANNELS 6 Xposition Yposition Zposition Zrotation Xrotation Yrotation
						JOINT RightHand
						{
							OFFSET -0.295418 0.000000 0.000000
							CHANNELS 6 Xposition Yposition Zposition Zrotation Xrotation Yrotation
							End Site
							{
								OFFSET -0.149313 0.000000 0.000000
							}
						}
					}
				}
			}
		}
	}
	JOINT LeftUpLeg
	{
		OFFSET 0.099542 0.000000 0.000000
		CHANNELS 6 Xposition Yposition Zposition Zrotation Xrotation Yrotation
		JOINT LeftLeg
		{
			OFFSET 0.000000 0.000000 -0.482893
			CHANNELS 6 Xposition Yposition Zposition Zrotation Xrotation Yrotation
			JOINT LeftFoot
			{
				OFFSET 0.000000 0.000000 -0.449402
				CHANNELS 6 Xposition Yposition Zposition Zrotation Xrotation Yrotation
				JOINT LeftToeBase
				{
					OFFSET 0.000000 -0.149313 -0.064702
					CHANNELS 6 Xposition Yposition Zposition Zrotation Xrotation Yrotation
					End Site
					{
						OFFSET 0.000000 -0.039817 -0.000000
					}
				}
			}
		}
	}
	JOINT RightUpLeg
	{
		OFFSET -0.099542 0.000000 0.000000
		CHANNELS 6 Xposition Yposition Zposition Zrotation Xrotation Yrotation
		JOINT RightLeg
		{
			OFFSET 0.000000 0.000000 -0.482893
			CHANNELS 6 Xposition Yposition Zposition Zrotation Xrotation Yrotation
			JOINT RightFoot
			{
				OFFSET 0.000000 0.000000 -0.449402
				CHANNELS 6 Xposition Yposition Zposition Zrotation Xrotation Yrotation
				JOINT RightToeBase
				{
					OFFSET 0.000000 -0.149313 -0.064702
					CHANNELS 6 Xposition Yposition Zposition Zrotation Xrotation Yrotation
					End Site
					{
						OFFSET 0.000000 -0.039817 -0.000000
					}
				}
			}
		}
	}
}
MOTION
Frames: 4
Frame Time: 0.041667
0.536660 0.067482 0.954163 -15.382129 2.477871 -0.664925 0.000000 -0.000000 0.081624 0.018663 -3.237043 0.660995 -0.000000 -0.000000 0.223658 6.889214 3.417053 1.934891 0.000000 -0.000000 0.223658 0.005784 14.364612 -0.045037 -0.000000 0.000000 0.109496 -3.814699 1.124033 -2.408585 0.038712 0.001691 0.204072 17.601438 15.120282 1.169316 0.112670 -0.000000 0.000000 -30.691943 8.617086 74.539357 0.324399 0.000000 0.000000 -1.771814 -0.003189 0.206971 0.295418 0.000000 0.000000 2.228741 -7.221455 4.841959 -0.038825 0.001691 0.204072 22.945730 11.768762 -1.875220 -0.112670 0.000000 -0.000000 34.502018 -3.892587 -47.985822 -0.324399 0.000000 -0.000000 53.929555 7.631346 14.937986 -0.295418 0.000000 -0.000000 -6.027120 -20.905548 4.165076 0.099542 -0.000000 -0.000000 11.204427 -16.007516 -0.096519 -0.000000 0.000000 -0.482893 4.547218 2.676192 2.403293 -0.000000 0.000000 -0.449402 15.192759 0.901740 -3.167341 0.000000 -0.149313 -0.064702 -0.000003 -0.000002 -0.000000 -0.099542 -0.000000 -0.000000 -0.631144 9.571251 5.384921 0.000000 0.000000 -0.482893 3.657723 6.489782 -5.080187 -0.000000 0.000000 -0.449402 -2.229516 -11.562146 -4.254835 0.000000 -0.149313 -0.064702 0.000002 -0.000001 0.000000 
0.535797 0.041684 0.949059 -16.344585 2.319339 -0.413519 0.000000 -0.000000 0.081624 0.017701 -3.268293 0.620756 -0.000000 -0.000000 0.223658 7.678371 3.508124 2.120200 0.000000 -0.000000 0.223658 -0.023650 14.360394 0.188513 -0.000000 -0.000000 0.109496 -3.526376 1.281860 -2.401211 0.038712 0.001691 0.204072 17.961036 15.335409 1.133394 0.112670 0.000000 0.000000 -30.333410 9.546996 74.920174 0.324399 0.000000 0.000000 -2.093951 -0.003443 0.189016 0.295418 0.000000 0.000000 2.615835 -6.230373 5.264212 -0.038825 0.001691 0.204072 22.958899 11.698238 -1.655295 -0.112670 0.000000 0.000000 34.304167 -4.028428 -47.781087 -0.324399 0.000000 0.000000 55.638451 8.249141 15.564683 -0.295418 -0.000000 0.000000 -6.631558 -21.290142 4.275708 0.099542 0.000000 -0.000000 8.960687 -15.793557 -1.002152 0.000000 0.000000 -0.482893 6.936995 -3.170554 1.932359 0.000000 0.000000 -0.449402 15.959736 2.642012 -3.863097 -0.000000 -0.149313 -0.064702 -0.000003 0.000000 -0.000000 -0.099542 0.000000 0.000000 -0.564668 10.809585 5.716596 -0.000000 0.000000 -0.482893 4.428982 7.157292 -4.993016 -0.000000 0.000000 -0.449402 -1.894258 -12.340609 -4.934111 0.000000 -0.149313 -0.064702 -0.000002 0.000002 0.000001 
0.534932 0.015556 0.943741 -17.295501 2.128398 -0.143110 0.000000 -0.000000 0.081624 0.017488 -3.253743 0.616063 -0.000000 -0.000000 0.223658 8.441291 3.529649 2.305550 -0.000000 -0.000000 0.223658 -0.035821 14.568114 0.280976 0.000000 -0.000000 0.109496 -3.228705 1.195302 -2.302959 0.038712 0.001691 0.204072 18.305718 15.518646 1.035469 0.112670 -0.000000 -0.000000 -30.209093 10.350569 75.284572 0.324399 0.000000 0.000000 -2.568651 -0.002472 0.110839 0.295418 0.000000 0.000000 2.765943 -5.379199 5.374805 -0.038825 0.001691 0.204072 22.974625 11.682796 -1.517521 -0.112670 -0.000000 -0.000000 34.110624 -4.063557 -47.757509 -0.324399 0.000000 -0.000000 57.014202 8.792589 16.114798 -0.295418 0.000000 -0.000000 -7.018892 -21.610934 4.402600 0.099542 -0.000000 -0.000000 4.930907 -15.641594 -2.686764 -0.000000 0.000000 -0.482893 10.629310 -7.174782 2.015957 0.000000 0.000000 -0.449402 17.123238 2.078982 -2.102994 -0.000000 -0.149313 -0.064702 -0.000002 0.000000 0.000000 -0.099542 -0.000000 0.000000 -0.740696 11.870772 6.078576 -0.000000 0.000000 -0.482893 5.345821 8.211181 -4.838249 0.000000 0.000000 -0.449402 -1.391651 -13.010924 -5.691412 0.000000 -0.149313 -0.064702 -0.000002 0.000000 -0.000001 
0.534420 -0.010931 0.938517 -18.048013 1.898207 0.046099 -0.000000 -0.000000 0.081624 0.020767 -3.252922 0.731800 0.000000 -0.000000 0.223658 8.985536 3.606745 2.462472 0.000000 -0.000000 0.223658 -0.039250 14.835801 0.302302 -0.000000 -0.000000 0.109496 -2.956068 1.045428 -2.145680 0.038712 0.001691 0.204072 18.570653 15.638575 0.944440 0.112670 -0.000000 0.000000 -30.197885 10.921762 75.590066 0.324399 -0.000000 0.000000 -3.009632 -0.001715 0.065620 0.295418 0.000000 0.000000 2.650135 -4.913770 5.159704 -0.038825 0.001691 0.204072 22.996858 11.716834 -1.430100 -0.112670 -0.000000 0.000000 33.836105 -3.985380 -47.931283 -0.324399 -0.000000 0.000000 58.147709 9.259479 16.574463 -0.295418 0.000000 -0.000000 -7.204465 -21.713323 4.483980 0.099542 -0.000000 -0.000000 1.860442 -15.752132 -4.172509 -0.000000 0.000000 -0.482893 13.528788 -8.390118 2.453802 0.000000 0.000000 -0.449402 17.513066 0.288148 1.464458 -0.000000 -0.149313 -0.064702 -0.000002 0.000001 -0.000000 -0.099542 -0.000000 -0.000000 -1.071516 12.805108 6.573074 -0.000000 0.000000 -0.482893 6.347093 9.615404 -4.699449 -0.000000 0.000000 -0.449402 -0.860645 -13.449783 -6.518476 0.000000 -0.149313 -0.064702 0.000000 -0.000001 -0.000000 
